<svg width="134" height="70" viewBox="0 0 134 70" fill="none" xmlns="http://www.w3.org/2000/svg">
<path d="M115.207 49.2623L63.5373 48.7856L60.7535 47.2161L10.6355 47.9401L65.4532 50.3462H74.4882L123.28 49.2623H115.207Z" fill="white"/>
<path d="M25.0044 10.9497C25.0044 10.9497 28.7776 5.52593 32.7352 4.14077C36.6884 2.7556 45.2917 2.35984 47.6663 5.9217C50.0409 9.48357 52.2131 13.4367 52.2131 13.4367H55.5771L49.7441 3.94289C49.7441 3.94289 48.7546 2.65666 51.1292 2.55772C53.5038 2.45878 75.9498 1.46937 85.4392 3.15136C85.4392 3.15136 79.0125 -0.603887 42.4269 0.084201C42.4269 0.084201 31.7458 0.282082 24.7255 4.43309C17.7053 8.58411 16.6799 8.86294 15.9243 10.0457C15.9243 10.0547 20.0843 9.50606 25.0044 10.9497Z" fill="white"/>
<path d="M3.34534 12.9826C3.34534 12.9826 8.11248 12.6632 13.851 12.9781C22.1306 13.4368 26.1961 17.5788 26.1961 17.5788C26.1961 17.5788 29.007 14.678 22.261 12.0381C22.261 12.0381 29.7445 13.4368 31.0712 15.0918L45.3816 14.3857L28.8271 12.6318C28.8271 12.6318 23.1605 10.0413 12.5153 10.518C12.5153 10.518 19.0184 11.3186 18.4923 11.7548C17.9706 12.1955 12.4434 10.4551 3.34534 12.9826Z" fill="white"/>
<path d="M51.8173 14.4259C51.8173 14.4259 70.4046 14.327 74.5601 17.0973C78.7111 19.8677 80.1953 20.7536 84.3508 20.9515C88.5018 21.1494 95.5221 21.9409 95.5221 21.9409C95.5221 21.9409 118.859 23.2272 124.692 21.9409C124.692 21.9409 131.514 21.019 128.942 19.3055C126.369 17.592 121.723 15.4153 117.869 14.8217C117.869 14.8217 126.374 18.9412 119.353 19.3055C112.333 19.6698 95.1128 20.0026 88.4028 18.1722C79.008 15.6132 66.3526 12.7439 51.8173 14.4259Z" fill="white"/>
<path d="M46.8613 12.1686C46.8613 12.1686 47.2435 11.1477 46.434 9.74458C45.6245 8.33692 45.1568 8.59327 42.5573 8.63824C39.9579 8.67871 38.6807 9.83003 38.8111 11.0668C38.937 12.3035 39.6206 12.6408 42.8137 13.0861C46.0068 13.5268 45.9663 14.1789 47.2435 15.4112C48.5208 16.6479 49.5866 14.1339 49.2898 13.4414L46.8613 12.1686ZM41.2936 10.9948L41.0912 10.0414L46.5329 10.9948H41.2936Z" fill="white"/>
<path d="M101.629 13.4367L100.249 12.4473C100.249 12.4473 101.085 11.7772 100.037 10.6034C98.9896 9.42964 97.7753 8.84499 95.7245 9.26324C95.7245 9.26324 89.9905 5.16169 88.1061 4.23975L100.959 13.7426C100.959 13.7426 110.336 13.9539 117.37 14.6195C117.37 14.6285 110.925 13.8415 101.629 13.4367ZM99.03 11.6468L98.324 10.2167L100.042 11.5479L99.03 11.6468Z" fill="white"/>
<path d="M100.042 13.4369C100.042 13.4369 79.7996 12.425 76.6784 12.9107C73.5528 13.3964 81.1982 15.0919 81.1982 15.0919C81.1982 15.0919 62.7997 12.9647 56.8948 13.4369C56.8948 13.4369 82.363 10.9499 100.042 13.4369Z" fill="white"/>
<path d="M129.666 21.0731C129.666 21.0731 130.75 24.9272 126.895 25.6513C126.895 25.6513 123.288 25.8267 121.481 25.8942L97.7708 25.9886C97.7708 25.9886 89.7881 25.8942 87.9846 25.8942C86.1767 25.8942 81.0183 25.5299 78.4683 21.0776C78.4683 21.0776 78.6842 23.9243 79.912 26.4428L74.007 31.3179C74.007 31.3179 71.5515 19.9937 64.5897 19.8723C64.5897 19.8723 60.758 19.8723 58.5903 24.0907C58.5903 24.0907 58.2305 24.3471 56.7823 23.3172C55.3387 22.2873 24.7345 19.4001 21.9642 20.2995C19.1939 21.199 17.2645 23.6365 16.7833 26.4563C16.7833 26.4563 14.2513 20.1241 10.1588 19.8183C10.1588 19.8183 7.50986 19.8768 5.58052 22.2873C5.58052 22.2873 7.26701 19.0358 1.12369 17.5876C1.12369 17.5876 -1.76808 25.7817 1.72633 37.106L4.73953 38.9139C4.73953 38.9139 5.46359 47.8275 10.6445 47.9489C15.8254 48.0704 19.1984 47.9489 19.1984 47.9489C19.1984 47.9489 22.6928 45.0572 23.2954 41.5628L53.8951 43.4921C53.8951 43.4921 55.5816 47.949 60.7625 47.2249C60.7625 47.2249 62.4489 50.355 65.4621 50.355C68.4753 50.355 74.4972 50.355 74.4972 50.355C74.4972 50.355 76.9123 48.709 78.3874 45.2101C78.4594 45.0437 78.5268 44.8683 78.5943 44.6929L93.2915 44.45V43.726L109.315 43.3662C109.315 43.3662 111.245 49.2712 115.22 49.2712C119.196 49.2712 123.293 49.2712 123.293 49.2712C123.293 49.2712 126.423 48.6685 128.114 44.4545L130.16 44.3331V42.8895C130.16 42.8895 133.349 47.4767 133.349 26.4473C133.335 26.4383 132.917 22.6381 129.666 21.0731ZM4.54164 34.8438C4.54164 34.8438 3.40382 26.5148 6.9477 23.587C10.4916 20.6593 12.9696 23.587 12.9696 23.587C12.9696 23.587 9.03445 23.1868 6.70485 27.5582C4.36625 31.9251 4.54164 34.8438 4.54164 34.8438ZM12.1196 44.1262C11.4855 44.7199 10.8019 45.0257 10.0823 45.0257C7.87864 45.0257 6.01676 42.1384 5.56253 38.0054C5.55354 37.9245 5.612 37.8525 5.69295 37.8435C5.7739 37.8345 5.84586 37.893 5.85486 37.9739C6.2866 41.8866 8.06303 44.7289 10.0823 44.7289C10.7209 44.7289 11.3371 44.4545 11.9172 43.9104C11.9757 43.8564 12.0701 43.8564 12.1286 43.9149C12.1826 43.9778 12.1781 44.0678 12.1196 44.1262ZM13.4283 43.7844C12.4974 45.2955 11.3101 46.1275 10.0823 46.1275C7.22204 46.1275 4.89243 41.6437 4.89243 36.1345C4.89243 35.1181 4.96889 34.1152 5.12629 33.1573C5.13979 33.0764 5.21624 33.0179 5.29719 33.0359C5.37814 33.0494 5.43211 33.1258 5.41862 33.2068C5.26571 34.1512 5.18926 35.1406 5.18926 36.139C5.18926 41.4863 7.38394 45.8352 10.0823 45.8352C11.2022 45.8352 12.304 45.0527 13.1765 43.636C13.2214 43.5641 13.3114 43.5416 13.3788 43.5866C13.4508 43.6225 13.4688 43.717 13.4283 43.7844ZM62.4444 22.5122C66.6359 20.9336 69.3613 24.5045 69.3613 24.5045C66.9058 23.5421 63.7981 23.0744 60.4881 27.9629C57.1781 32.8515 58.6082 41.7247 58.6082 41.7247C56.5035 32.6266 58.253 24.0907 62.4444 22.5122ZM67.8187 45.2326C67.0227 46.0601 66.1142 46.4963 65.1833 46.4963C62.3095 46.4963 59.9664 42.3363 59.9664 37.2229C59.9664 37.1419 60.0339 37.0745 60.1148 37.0745C60.1958 37.0745 60.2633 37.1419 60.2633 37.2229C60.2633 42.1699 62.4714 46.1995 65.1833 46.1995C66.0288 46.1995 66.8698 45.7947 67.6074 45.0302C67.6658 44.9717 67.7603 44.9672 67.8187 45.0257C67.8772 45.0797 67.8772 45.1741 67.8187 45.2326ZM53.94 37.83C52.2985 38.8644 20.3362 34.3761 20.8534 33.598C21.3706 32.82 47.374 30.9222 49.7081 32.042C52.0422 33.1663 55.3882 36.9171 53.94 37.83ZM59.6156 44.603C58.9321 44.9268 58.3249 45.0482 57.7987 45.0482C56.0673 45.0482 55.1543 43.7305 55.1453 43.7125C55.1003 43.645 55.1183 43.5551 55.1858 43.5056C55.2533 43.4606 55.3477 43.4786 55.3927 43.5461C55.4511 43.6315 56.8228 45.5969 59.4942 44.3331C59.5707 44.2971 59.6561 44.3286 59.6921 44.4051C59.7236 44.4815 59.6921 44.567 59.6156 44.603ZM69.6986 44.3826C68.5563 46.6717 66.9103 47.9849 65.1833 47.9849C61.8508 47.9849 59.1434 43.1593 59.1434 37.2274C59.1434 35.0822 59.4942 33.0134 60.1598 31.2415C60.1868 31.165 60.2722 31.1245 60.3487 31.156C60.4252 31.183 60.4656 31.2684 60.4342 31.3449C59.782 33.0854 59.4357 35.1181 59.4357 37.2274C59.4357 42.9974 62.0127 47.6881 65.1788 47.6881C66.7888 47.6881 68.3404 46.4334 69.4288 44.2522C69.4647 44.1802 69.5547 44.1487 69.6266 44.1847C69.7076 44.2207 69.7346 44.3061 69.6986 44.3826ZM116.628 43.4741C116.704 43.4472 116.79 43.4921 116.817 43.5686C116.821 43.5776 117.123 44.477 117.644 44.7289C117.802 44.8053 117.964 44.8098 118.135 44.7469C118.211 44.7199 118.296 44.7559 118.323 44.8323C118.35 44.9088 118.314 44.9942 118.238 45.0212C118.126 45.0617 118.018 45.0842 117.905 45.0842C117.77 45.0842 117.64 45.0527 117.514 44.9897C116.875 44.6839 116.547 43.6945 116.534 43.654C116.507 43.5821 116.552 43.4966 116.628 43.4741ZM119.277 44.6164C117.995 46.168 116.893 47.036 114.964 47.036C114.802 47.036 114.631 47.0315 114.456 47.018C112.279 46.8606 110.548 43.8159 110.476 43.6855C110.435 43.6135 110.462 43.5236 110.534 43.4831C110.606 43.4427 110.696 43.4696 110.737 43.5416C110.754 43.5731 112.463 46.5773 114.478 46.7212C116.61 46.8741 117.694 46.0691 119.048 44.4276C119.101 44.3646 119.191 44.3556 119.254 44.4096C119.322 44.459 119.331 44.5535 119.277 44.6164Z" fill="white"/>
<path d="M11.3316 53.9122C12.4985 54.7774 13.1532 56.1079 13.3169 57.9295H10.7938C10.56 56.8538 10.1391 56.0611 9.48668 55.5934C8.83194 55.1024 7.89895 54.8686 6.63624 54.8686C5.53721 54.8686 4.69774 55.0322 4.11316 55.3596C3.38827 55.7337 3.03752 56.3417 3.03752 57.1812C3.03752 57.9295 3.43504 58.5117 4.2745 58.956C4.64864 59.1664 5.60502 59.5172 7.17172 59.9825C9.4142 60.684 10.885 61.2195 11.5398 61.617C12.9638 62.4822 13.6887 63.6724 13.6887 65.2134C13.6887 66.7076 13.1041 67.8768 11.9373 68.7396C10.7704 69.5814 9.13359 70 7.03141 70C4.99939 70 3.41165 69.5791 2.26586 68.7864C0.888573 67.8043 0.140301 66.2633 0 64.1612H2.52308C2.71015 65.4683 3.17782 66.427 3.92375 66.9882C4.60187 67.5027 5.62841 67.7599 7.03141 67.7599C8.29179 67.7599 9.29728 67.526 10.0456 67.1051C10.7938 66.6842 11.1656 66.0996 11.1656 65.3537C11.1656 64.4184 10.6278 63.6958 9.57788 63.158C9.20374 62.9709 8.10706 62.5968 6.2621 62.0356C4.20669 61.3809 2.94632 60.9389 2.43188 60.6583C1.14813 59.8867 0.516777 58.7666 0.516777 57.3191C0.516777 55.8483 1.12475 54.7025 2.36173 53.8631C3.52857 53.068 5.00173 52.6729 6.77654 52.6729C8.71503 52.6752 10.2326 53.0704 11.3316 53.9122Z" fill="white"/>
<path d="M85.967 53.0002V55.1726H80.4088V69.6773H77.8857V55.1726H72.3041V53.0002H85.967Z" fill="white"/>
<path d="M121.716 53.0002H118.61L124.215 61.0605L118.213 69.6773H121.318L125.78 63.0692L130.241 69.6773H133.349L121.716 53.0002Z" fill="white"/>
<path d="M132.269 53.0027H129.722V55.5491H132.269V53.0027Z" fill="white"/>
<path d="M21.5361 53.0002L28.1467 63.0224V69.6773H30.6674V62.6319L24.5947 53.0002H21.5361Z" fill="white"/>
<path d="M36.892 53.0027H34.3456V55.5491H36.892V53.0027Z" fill="white"/>
<path d="M61.0239 53.0002H58.4774V55.5467H61.0239V53.0002Z" fill="white"/>
<path d="M49.8583 53.0002H47.2885V69.6773H49.8349V57.1344H49.9284L58.5452 69.6773H61.2414L49.8583 53.0002Z" fill="white"/>
<path d="M103.731 53.0002H101.201L107.421 69.6773H110.155L103.731 53.0002Z" fill="white"/>
<path d="M101.484 61.016H100.292V61.0137H97.7476L94.4131 69.6773H97.1232L99.499 63.1837H102.34L101.484 61.016Z" fill="white"/>
</svg>
